<svg xmlns="http://www.w3.org/2000/svg" width="512" height="512"><path d="M252.779 126.4c.976.488 1.758 1.66 2.929 1.66 1.074 0 2.734-.391 2.832-1.465.195-1.367-1.855-2.246-3.125-2.832-1.66-.684-3.808-.976-5.371-.098-.391.195-.781.684-.586 1.074.293 1.269 2.246 1.074 3.32 1.66zm-21.385 1.66c1.172 0 1.953-1.172 2.929-1.66 1.074-.586 3.027-.391 3.418-1.562.195-.391-.195-.879-.586-1.074-1.562-.879-3.711-.586-5.371.098-1.269.586-3.32 1.465-3.125 2.832.098.976 1.758 1.465 2.734 1.367zm215.9 272.243c-3.515-3.906-5.175-11.327-7.031-19.237-1.758-7.909-3.808-16.405-10.253-21.873-1.269-1.074-2.539-2.051-3.906-2.832-1.269-.781-2.637-1.465-4.004-1.953 8.984-26.658 5.468-53.218-3.613-77.24-11.132-29.392-30.564-55.074-45.406-72.65-16.698-20.994-32.907-40.915-32.614-70.307.488-44.82 4.98-128.114-74.017-128.212-99.992-.195-74.994 100.968-76.068 132.02-1.66 22.85-6.249 40.817-21.971 63.178-18.455 21.971-44.43 57.417-56.734 94.426-5.859 17.479-8.593 35.251-6.054 52.046-6.347 5.664-11.132 14.354-16.21 19.725-4.101 4.199-10.058 5.761-16.6 8.105s-13.671 5.859-18.065 14.159c-2.051 3.808-2.734 7.909-2.734 12.108 0 3.808.586 7.714 1.172 11.522 1.172 7.909 2.441 15.331.781 20.311-5.078 14.061-5.761 23.826-2.148 30.954 3.711 7.128 11.132 10.253 19.627 12.011 16.893 3.515 39.84 2.637 57.905 12.206 19.334 10.155 38.962 13.768 54.585 10.155 11.327-2.539 20.604-9.374 25.291-19.725 12.206-.098 25.681-5.273 47.164-6.445 14.55-1.172 32.81 5.175 53.804 4.004.586 2.246 1.367 4.492 2.441 6.542v.098c8.105 16.307 23.24 23.728 39.352 22.459 16.21-1.269 33.298-10.741 47.164-27.244 13.28-16.014 35.153-22.654 49.703-31.443 7.226-4.394 13.085-9.862 13.573-17.87.391-8.007-4.297-16.893-15.135-29.001zM255.611 91.247c9.57-21.678 33.396-21.287 42.965-.391 6.347 13.866 3.515 30.173-4.199 39.45-1.562-.781-5.761-2.539-12.304-4.785 1.074-1.172 3.027-2.636 3.808-4.492 4.687-11.522-.195-26.365-8.886-26.658-7.128-.488-13.573 10.546-11.522 22.459-4.004-1.953-9.179-3.418-12.694-4.297-.976-6.738-.293-14.257 2.832-21.287zm-39.743-11.23c9.862 0 20.311 13.866 18.651 32.712-3.418.976-6.933 2.441-9.96 4.492 1.172-8.691-3.222-19.627-9.374-19.139-8.202.684-9.57 20.701-1.758 27.439.976.781 1.855-.195-5.761 5.371-15.233-14.257-10.253-50.875 8.202-50.875zm-13.28 59.272l13.768-10.253c4.589-4.297 13.183-13.866 27.244-13.866 6.933 0 15.233 2.246 25.291 8.691 6.152 4.004 11.034 4.297 22.068 9.081 8.202 3.418 13.378 9.472 10.253 17.772-2.539 6.933-10.741 14.061-22.166 17.674-10.839 3.515-19.334 15.624-37.302 14.55-3.808-.195-6.835-.976-9.374-2.051-7.812-3.418-11.913-10.155-19.53-14.647-8.398-4.687-12.89-10.155-14.354-14.94-1.367-4.785 0-8.788 4.101-12.011zm3.222 326.145c-2.637 34.274-42.868 33.591-73.529 17.577-29.197-15.428-66.987-6.347-74.701-21.385-2.344-4.589-2.344-12.401 2.539-25.779v-.195c2.344-7.421.586-15.624-.586-23.338-1.172-7.617-1.758-14.647.879-19.53 3.418-6.542 8.3-8.886 14.452-11.034 10.058-3.613 11.522-3.32 19.139-9.667 5.371-5.566 9.277-12.597 13.964-17.577 4.98-5.371 9.765-7.909 17.284-6.738 7.909 1.172 14.745 6.64 21.385 15.624l19.139 34.763c9.277 19.432 42.086 47.262 40.036 67.28zm-1.367-25.291c-4.004-6.445-9.374-13.28-14.061-19.139 6.933 0 13.866-2.148 16.307-8.691 2.246-6.054 0-14.55-7.226-24.314-13.183-17.772-37.399-31.736-37.399-31.736-13.183-8.202-20.604-18.26-24.021-29.197s-2.929-22.752-.293-34.372c5.078-22.361 18.163-44.137 26.56-57.808 2.246-1.66.781 3.125-8.495 20.311-8.3 15.721-23.826 52.046-2.539 80.462.586-20.213 5.371-40.817 13.475-60.054 11.718-26.756 36.423-73.138 38.376-110.049 1.074.781 4.492 3.125 6.054 4.004 4.492 2.637 7.91 6.542 12.304 10.058 12.108 9.765 27.83 8.984 41.403 1.172 6.054-3.418 10.937-7.324 15.526-8.788 9.667-3.027 17.381-8.398 21.776-14.647 7.519 29.685 25.096 72.553 36.325 93.449 5.957 11.132 17.87 34.665 23.045 63.081 3.222-.098 6.835.391 10.644 1.367 13.475-34.86-11.425-72.455-22.752-82.903-4.589-4.492-4.785-6.445-2.539-6.347 12.304 10.937 28.513 32.907 34.372 57.612 2.734 11.327 3.222 23.143.391 34.86 16.014 6.64 35.056 17.479 29.978 33.982-2.148-.098-3.125 0-4.101 0 3.125-9.862-3.808-17.186-22.264-25.486-19.139-8.398-35.153-8.398-37.399 12.206-11.815 4.101-17.87 14.354-20.897 26.658-2.734 10.937-3.515 24.119-4.297 38.962-.488 7.519-3.515 17.577-6.64 28.318-31.345 22.361-74.896 32.126-111.612 7.031zm251.346-11.23c-.879 16.405-40.231 19.432-61.714 45.406-12.89 15.331-28.709 23.826-42.575 24.9s-25.877-4.687-32.907-18.846c-4.589-10.839-2.344-22.557 1.074-35.446 3.613-13.866 8.984-28.123 9.667-39.645.781-14.843 1.66-27.83 4.101-37.79 2.539-10.058 6.445-16.795 13.378-20.604.293-.195.684-.293.976-.488.781 12.89 7.128 25.974 18.358 28.806 12.304 3.222 29.978-7.324 37.497-15.917 8.788-.293 15.331-.879 22.068 4.98 9.667 8.3 6.933 29.587 16.698 40.622 10.351 11.327 13.671 19.041 13.378 24.021zM206.396 151.203c1.953 1.855 4.589 4.394 7.812 6.933 6.445 5.078 15.428 10.351 26.658 10.351 11.327 0 21.971-5.761 31.052-10.546 4.785-2.539 10.644-6.835 14.452-10.155s5.761-6.152 3.027-6.445-2.539 2.539-5.859 4.98c-4.297 3.125-9.472 7.226-13.573 9.57-7.226 4.101-19.041 9.96-29.197 9.96s-18.26-4.687-24.314-9.472c-3.027-2.441-5.566-4.882-7.519-6.738-1.465-1.367-1.855-4.492-4.199-4.785-1.367-.098-1.758 3.613 1.66 6.347z"/></svg>
